<svg width="200" height="200" viewBox="0 0 200 200" xmlns="http://www.w3.org/2000/svg">
  <!-- 2048 Game Icon -->
  <rect width="200" height="200" rx="20" fill="#faf8ef"/>
  <rect x="20" y="20" width="160" height="160" rx="10" fill="#bbada0"/>
  
  <!-- Grid cells -->
  <rect x="30" y="30" width="35" height="35" rx="3" fill="#cdc1b4"/>
  <rect x="75" y="30" width="35" height="35" rx="3" fill="#cdc1b4"/>
  <rect x="120" y="30" width="35" height="35" rx="3" fill="#cdc1b4"/>
  <rect x="165" y="30" width="35" height="35" rx="3" fill="#cdc1b4"/>
  
  <rect x="30" y="75" width="35" height="35" rx="3" fill="#cdc1b4"/>
  <rect x="75" y="75" width="35" height="35" rx="3" fill="#cdc1b4"/>
  <rect x="120" y="75" width="35" height="35" rx="3" fill="#cdc1b4"/>
  <rect x="165" y="75" width="35" height="35" rx="3" fill="#cdc1b4"/>
  
  <rect x="30" y="120" width="35" height="35" rx="3" fill="#cdc1b4"/>
  <rect x="75" y="120" width="35" height="35" rx="3" fill="#cdc1b4"/>
  <rect x="120" y="120" width="35" height="35" rx="3" fill="#cdc1b4"/>
  <rect x="165" y="120" width="35" height="35" rx="3" fill="#cdc1b4"/>
  
  <rect x="30" y="165" width="35" height="35" rx="3" fill="#cdc1b4"/>
  <rect x="75" y="165" width="35" height="35" rx="3" fill="#cdc1b4"/>
  <rect x="120" y="165" width="35" height="35" rx="3" fill="#cdc1b4"/>
  <rect x="165" y="165" width="35" height="35" rx="3" fill="#cdc1b4"/>
  
  <!-- Number tiles -->
  <rect x="30" y="30" width="35" height="35" rx="3" fill="#eee4da"/>
  <text x="47.5" y="52" text-anchor="middle" font-family="Arial, sans-serif" font-size="16" font-weight="bold" fill="#776e65">2</text>
  
  <rect x="75" y="75" width="35" height="35" rx="3" fill="#ede0c8"/>
  <text x="92.5" y="97" text-anchor="middle" font-family="Arial, sans-serif" font-size="16" font-weight="bold" fill="#776e65">4</text>
  
  <rect x="120" y="120" width="35" height="35" rx="3" fill="#f2b179"/>
  <text x="137.5" y="142" text-anchor="middle" font-family="Arial, sans-serif" font-size="14" font-weight="bold" fill="#f9f6f2">8</text>
  
  <rect x="165" y="165" width="35" height="35" rx="3" fill="#f59563"/>
  <text x="182.5" y="187" text-anchor="middle" font-family="Arial, sans-serif" font-size="12" font-weight="bold" fill="#f9f6f2">16</text>
</svg>